<svg xmlns="http://www.w3.org/2000/svg" viewBox="0 0 500 500"><circle cx="250" cy="250" r="247.32" fill="#00a8ca"/><path d="M318.2,239.71c-23-12.4-51.21-16.93-72.17-25.61-14.38-6.2-29.57-13.39-26.66-34.84,2.48-18,26.23-26.85,45.26-26.6,20.77.31,39.62,8.87,48.18,20.09l45.81-50.16a114.68,114.68,0,0,0-49.91-26.35A167.45,167.45,0,0,0,230.59,95c-26,6.2-60,21.14-75.57,62-6.89,18-8.56,51.15,3.1,70.49,14.57,24.06,37.69,35.59,65.1,44.15,21.94,6.88,52.51,15,63.79,29.08a27.13,27.13,0,0,1,.62,31.86c-9.54,12.78-31,19-52.76,15.88a72.23,72.23,0,0,1-47.37-28.09l-47.67,51.77a136.49,136.49,0,0,0,66.77,34.91,169.17,169.17,0,0,0,91.82-6.2,94,94,0,0,0,50.78-44.33,107.53,107.53,0,0,0,9.42-61.07C356.33,275.42,345.11,254.09,318.2,239.71Z" fill="#f7f7f7"/></svg>